<?xml version="1.0" standalone="no"?>
<!DOCTYPE svg PUBLIC "-//W3C//DTD SVG 20010904//EN"
 "http://www.w3.org/TR/2001/REC-SVG-20010904/DTD/svg10.dtd">

<svg version="1.0" xmlns="http://www.w3.org/2000/svg"
 width="120" height="80" viewBox="0 0 2754.000000 1876.000000"
 preserveAspectRatio="xMidYMid meet" >

<!-- <g transform="translate(0.000000,1876.000000) scale(0.100000,-0.100000)"
 > -->
<!-- <g transform="translate(0.000000,1876.000000) scale(0.100000,-0.100000)"
 stroke="none"> -->


<g id='logo-face' transform="translate(0.000000,1876.000000) scale(0.100000,-0.100000)" >
<!-- below is his face -->
<path  d="M10350 16071 c-895 -353 -1639 -815 -2307 -1433 -84 -78 -155 -148
-157 -157 -28 -93 -80 -456 -106 -731 -50 -537 -161 -1088 -362 -1797 l-52
-183 -55 0 c-262 -1 -1087 25 -1093 34 -4 6 -12 -2 -19 -19 -19 -50 -116 -349
-123 -382 -7 -29 -5 -31 30 -37 55 -11 307 -93 414 -136 223 -89 410 -189 585
-313 123 -87 332 -294 400 -397 146 -220 243 -495 274 -782 26 -230 5 -592
-38 -676 -56 -109 -176 -150 -288 -98 -63 30 -107 86 -123 158 -32 151 -110
329 -198 454 -224 317 -612 522 -1112 590 -58 7 -128 14 -156 14 l-51 0 -6
-37 c-36 -226 -74 -714 -83 -1053 -6 -219 -5 -252 11 -300 26 -82 117 -251
253 -472 147 -238 180 -304 265 -518 120 -303 204 -603 262 -940 71 -412 161
-821 255 -1168 78 -283 145 -497 155 -496 5 1 24 22 42 49 l33 47 0 144 c0
413 80 873 215 1241 54 144 183 402 265 528 457 698 1205 1122 2190 1240 74 9
236 19 360 22 l225 6 61 57 c280 261 694 479 1112 586 39 10 72 21 72 25 0 4
-11 31 -24 60 -61 139 -71 198 -71 424 1 233 8 281 68 421 62 147 175 286 303
375 61 42 195 104 269 124 60 17 61 18 94 81 74 143 138 194 242 194 184 -1
277 -185 176 -349 -20 -32 -37 -66 -37 -74 0 -8 11 -39 24 -68 13 -30 37 -87
54 -127 l31 -72 -192 6 c-159 6 -203 4 -254 -9 -123 -32 -211 -92 -268 -182
-50 -79 -65 -130 -76 -252 -17 -184 15 -311 101 -406 45 -49 141 -113 152
-102 3 3 -8 31 -24 61 -15 31 -28 73 -28 92 0 126 96 224 220 224 82 0 126
-26 208 -124 74 -88 234 -246 317 -315 91 -74 244 -172 347 -222 196 -95 349
-133 538 -135 208 -1 365 39 569 144 201 104 424 288 624 515 87 99 117 121
176 134 88 19 175 -17 228 -93 38 -54 45 -154 14 -214 -11 -22 -17 -43 -13
-46 13 -8 100 62 132 106 64 88 91 244 72 414 -24 209 -144 349 -343 400 -53
14 -93 15 -251 9 -120 -5 -188 -4 -188 2 0 6 24 66 54 134 l55 124 -26 45
c-63 110 -72 148 -54 216 27 99 112 164 214 164 111 0 183 -68 274 -258 0 -2
27 -10 60 -19 32 -8 96 -32 141 -54 299 -139 471 -394 503 -745 18 -205 -1
-357 -68 -530 l-20 -51 56 -13 c85 -18 293 -87 416 -137 283 -115 559 -289
747 -471 l57 -55 54 7 c71 8 405 -9 567 -30 267 -33 579 -108 830 -200 147
-54 442 -204 575 -293 166 -110 270 -195 410 -335 281 -281 479 -603 618
-1004 112 -320 175 -678 193 -1097 l7 -159 38 129 c105 355 221 862 304 1327
54 308 94 465 185 738 115 346 173 469 373 790 53 85 127 215 164 289 l68 134
3 181 c4 193 -9 473 -34 751 -15 174 -52 476 -58 482 -2 2 -50 -4 -107 -12
-646 -97 -1080 -418 -1238 -915 -17 -52 -35 -113 -41 -135 -25 -101 -94 -157
-200 -163 -53 -3 -75 0 -107 16 -49 25 -97 79 -111 124 -33 102 -49 400 -33
583 61 667 358 1102 972 1424 153 80 253 123 449 191 155 54 165 59 161 81 -7
50 -152 472 -223 654 -205 517 -423 936 -724 1385 -79 118 -150 223 -158 233
-14 18 -20 16 -135 -30 l-121 -48 0 -40 c0 -86 -80 -196 -184 -255 -47 -27
-50 -28 -90 -14 -113 40 -350 84 -454 84 -27 0 -128 -14 -224 -30 -223 -39
-472 -66 -723 -81 -110 -6 -201 -12 -202 -13 -1 -1 7 -27 18 -59 29 -85 42
-208 35 -324 -24 -390 -244 -671 -570 -728 -105 -18 -166 -19 -273 -4 -215 29
-391 103 -513 216 -174 161 -260 376 -260 653 l0 119 -57 8 c-90 13 -574 9
-708 -5 -219 -24 -348 -42 -579 -79 l-228 -37 -43 23 c-153 81 -206 223 -136
365 16 34 45 78 63 98 36 40 82 57 407 147 79 22 146 43 149 45 2 3 -7 10 -21
15 -902 343 -1752 900 -2401 1573 -83 86 -191 206 -241 266 -69 85 -100 115
-135 130 -67 30 -238 73 -595 151 -610 132 -803 179 -1111 267 -106 29 -196
54 -200 53 -5 0 -74 -26 -154 -58z m1210 -2205 c538 -38 966 -97 1390 -191
244 -54 252 -58 299 -116 62 -78 86 -134 85 -204 0 -93 -54 -177 -155 -240
-38 -25 -42 -25 -122 -15 -362 44 -844 67 -1104 51 -163 -10 -319 -29 -372
-46 -14 -4 -15 -16 -7 -96 11 -100 -1 -248 -29 -354 -23 -89 -97 -232 -157
-303 -127 -149 -312 -245 -555 -287 -384 -67 -682 103 -814 465 -84 233 -75
537 22 669 l33 44 -410 -6 c-608 -8 -959 -51 -1221 -149 l-91 -34 -53 27 c-78
39 -144 101 -175 164 -54 111 -19 254 102 411 l54 72 75 11 c356 53 1078 114
1650 141 291 13 1295 4 1555 -14z"/>

<!-- ear -->
<path  d="M21678 13036 c-49 -18 -127 -68 -161 -104 l-28 -29 67 -149 c162
-362 314 -782 427 -1179 l14 -50 164 3 c90 2 165 4 166 6 2 2 11 43 21 92 13
69 17 141 16 319 0 257 -13 343 -79 542 -83 249 -232 456 -381 529 -69 34
-167 43 -226 20z"/>
<!-- other ear -->
<path  d="M5275 12837 c-80 -27 -132 -61 -205 -137 -148 -151 -255 -387 -304
-670 -20 -115 -30 -358 -19 -459 l8 -73 225 1 c123 1 226 4 228 6 2 2 24 72
48 157 87 299 248 749 349 973 l27 60 -51 46 c-98 88 -217 125 -306 96z"/>



<!-- lower lip -->
<path  d="M13605 5874 c-209 -73 -556 -151 -955 -215 -208 -33 -372 -95 -639
-244 -139 -77 -232 -134 -221 -135 3 -1 55 -14 115 -29 111 -29 288 -99 380
-151 162 -91 936 -183 1395 -165 523 20 1071 106 1288 203 190 85 330 121 505
129 70 3 127 9 127 12 -1 12 -238 148 -405 232 -230 116 -309 140 -621 194
-339 58 -570 109 -766 171 -45 14 -86 27 -92 29 -6 2 -56 -12 -111 -31z"/>
<!-- chin -->
<path d="M15830 4769 c-145 -58 -457 -161 -675 -224 -506 -145 -977 -227
-1395 -242 -603 -21 -1634 178 -2293 443 l-58 23 -16 -42 c-70 -177 -235 -460
-387 -662 -185 -245 -487 -558 -751 -779 -424 -353 -1024 -745 -1534 -1001
l-94 -47 79 -80 c394 -399 926 -779 1474 -1053 859 -431 1799 -662 2940 -725
236 -13 794 -13 1015 0 1104 65 2057 301 2890 718 546 272 1027 617 1485 1061
158 153 162 127 -35 230 -355 187 -774 452 -1090 689 -492 370 -898 780 -1159
1171 -97 146 -209 350 -257 468 -22 52 -39 82 -49 82 -8 0 -49 -14 -90 -30z"/>

</g>



<!-- hair -->
<g id='logo-hair' transform="translate(0.000000,1876.000000) scale(0.100000,-0.100000)"  >
<!-- 0 -->
<path  d="M6712 15633 c-119 -229 -238 -548 -306 -818 -68 -273 -66 -248 -66
-904 l0 -597 35 -204 c30 -182 93 -509 125 -657 l12 -53 134 0 134 0 0 1665
c0 916 -4 1665 -8 1665 -5 0 -32 -44 -60 -97z" style="--order: 0"/>
<!-- 1 -->
<path  d="M7411 16590 c-68 -69 -173 -183 -232 -255 l-109 -130 2 -1900 3
-1900 38 -3 c47 -4 47 -5 81 218 40 262 65 501 78 740 9 184 9 247 -6 435 -18
250 -21 603 -5 792 30 368 113 715 234 988 l45 101 -2 519 -3 520 -124 -125z"
style="--order: 1"
/>
<!-- 2 -->
<path  d="M8177 17209 c-92 -59 -157 -104 -314 -218 l-22 -16 -1 -419 0 -419
113 109 c113 110 179 165 295 243 l62 42 0 374 c0 294 -3 375 -12 374 -7 0
-62 -31 -121 -70z"
style="--order: 2"/>
<!-- 3 -->
<path  d="M8950 17621 c-58 -26 -160 -73 -227 -106 l-123 -58 0 -389 c0 -213 2
-388 5 -388 3 0 59 18 124 40 65 21 168 49 230 62 l111 23 0 432 c0 238 -3
433 -7 432 -5 0 -55 -22 -113 -48z"
style="--order: 3"/>
<!-- 4 -->
<path  d="M9591 17865 c-117 -40 -217 -77 -222 -82 -5 -5 -8 -206 -7 -479 l3
-469 160 -6 c88 -3 190 -10 228 -14 l67 -8 0 567 c0 311 -3 566 -7 565 -5 0
-104 -33 -222 -74z"
style="--order: 4"/>
<!-- 5 -->
<path  d="M10510 18158 c-36 -10 -140 -42 -232 -70 l-168 -51 0 -648 0 -648 36
-10 c106 -29 425 -103 429 -99 3 3 4 351 3 775 l-3 771 -65 -20z"
style="--order: 5"/>
<!-- 6 -->
<path  d="M11906 18489 c-92 -16 -182 -33 -200 -37 l-31 -8 0 -1024 0 -1024
210 -38 c116 -20 222 -37 238 -38 l27 0 0 1100 0 1100 -37 -1 c-21 0 -114 -14
-207 -30z" style="--order: 6"/>
<!-- 7 -->
<path   d="M11145 18329 c-110 -27 -217 -54 -237 -60 l-38 -10 0 -844 0 -845 23
-5 c12 -2 90 -21 172 -41 83 -20 187 -44 233 -54 l82 -17 0 963 c0 912 -1 964
-17 963 -10 0 -108 -23 -218 -50z" style="--order: 7"/>
<!-- 8 -->
<path  d="M12610 18579 c-58 -5 -120 -11 -137 -14 l-33 -6 0 -1144 0 -1145 23
-4 c12 -3 101 -17 197 -31 96 -15 187 -33 202 -41 l28 -15 0 1206 0 1205 -87
-1 c-49 -1 -135 -6 -193 -10z" style="--order: 8"/>
<!-- 9 -->
<path  d="M13180 17192 l0 -1401 89 -109 c92 -112 268 -308 340 -377 l41 -39 0
1646 0 1645 -102 12 c-57 6 -163 15 -235 18 l-133 6 0 -1401z"
style="--order: 9"/>
<!-- 10 -->
<path  d="M13950 16737 l0 -1763 118 -98 c64 -54 180 -146 257 -204 l140 -105
3 1874 c1 1031 0 1879 -2 1886 -3 7 -21 19 -41 27 -68 29 -270 94 -355 116
-47 11 -93 23 -102 26 -17 5 -18 -83 -18 -1759z"
style="--order: 10"/>
<!-- 11 -->
<path  d="M14760 16281 l0 -1909 113 -65 c129 -74 341 -187 350 -187 4 0 7 858
7 1908 l0 1907 -138 82 c-165 98 -302 173 -319 173 -10 0 -13 -388 -13 -1909z"
style="--order: 11"/>
<!-- 12 -->
<path  d="M15530 15861 l0 -1879 103 -40 c128 -51 292 -107 335 -117 l32 -7 -2
1788 -3 1788 -174 132 c-96 73 -200 151 -232 173 l-59 42 0 -1880z"
style="--order: 12"/>
<!-- 13 -->
<path  d="M16292 15453 l3 -1717 50 -12 c52 -14 286 -57 368 -69 l47 -7 0 1625
0 1625 -107 57 c-59 31 -163 92 -231 136 -68 43 -126 79 -128 79 -2 0 -3 -773
-2 -1717z" style="--order: 13"/>

<!-- 14 -->

<path  d="M17060 15196 l0 -1583 78 -7 c177 -16 357 -24 365 -17 4 4 6 699 5
1546 l-3 1538 -100 17 c-106 19 -232 49 -303 74 l-42 15 0 -1583z" style="--order: 14"/>
<!-- 15 -->
<path  d="M18198 16655 c-3 -3 -93 -7 -199 -8 l-194 -2 -3 -1533 -2 -1532 62 0
c69 0 286 16 361 26 l47 6 0 1524 0 1524 -33 0 c-19 0 -36 -2 -39 -5z" style="--order: 15"/>

<path  d="M19000 16914 c-83 -57 -221 -125 -336 -163 l-89 -30 -3 -1531 -2
-1532 32 7 c75 15 309 75 386 100 l82 26 0 1584 c0 872 -1 1585 -2 1584 -2 0
-32 -20 -68 -45z" style="--order: 16"/>

<path  d="M19360 18344 l0 -239 40 -112 c54 -153 73 -263 68 -394 -3 -106 -4
-108 -56 -212 l-52 -105 0 -1686 c0 -1467 2 -1686 15 -1686 18 0 353 168 418
209 l47 31 -2 2112 -3 2113 -70 37 c-81 43 -337 154 -377 163 l-28 7 0 -238z"
style="--order: 17"/>

<path  d="M20130 16275 c0 -1059 3 -1925 7 -1925 15 0 208 164 320 274 l123
119 0 1573 0 1573 -118 88 c-113 85 -314 223 -326 223 -3 0 -6 -866 -6 -1925z"
style="--order: 18"/>

<path  d="M20870 16354 c0 -787 3 -1233 10 -1229 12 8 105 159 162 265 99 182
190 431 233 635 110 515 -5 1029 -333 1488 -30 42 -59 77 -64 77 -4 0 -8 -556
-8 -1236z" style="--order: 19"/>

</g>
<!-- dont know what this one does below
<path  d="M19021 18632 l44 -49 3 39 c2 22 2 41 0 43 -2 1 -23 5 -47 9 l-43 7
43 -49z"/> -->


 
<!-- mustache -->

<g id='logo-mustache' transform="translate(0.000000,1876.000000) scale(0.100000,-0.100000)" >

<!-- 0 -->
<path style="--order: 0" d="M1146 7483 c-36 -173 -80 -525 -96 -768 -26 -404 -3 -775 80 -1317
11 -70 20 -129 20 -132 0 -3 5 -6 10 -6 7 0 10 382 10 1125 0 679 -4 1125 -9
1125 -5 0 -12 -12 -15 -27z"/>

<!-- 1 -->
<path style="--order: 1" d="M1810 9368 c-89 -142 -204 -372 -281 -563 l-64 -160 -3 -2246 -2
-2246 50 -114 c94 -211 298 -579 321 -579 5 0 9 80 9 193 0 105 9 1362 20
2792 12 1430 19 2696 18 2813 l-3 213 -65 -103z"/>

<!-- 2 -->
<path style="--order: 2" d="M2603 10231 c-111 -86 -226 -187 -326 -288 l-97 -99 -25 -3114 c-14
-1713 -25 -3244 -25 -3401 l0 -286 123 -134 c109 -118 345 -342 405 -385 l22
-15 0 3885 c0 2137 -3 3886 -7 3885 -5 0 -36 -22 -70 -48z" />

<!-- 3 -->
 <!-- top  -->
<path style="--order: 3" d="M3285 10640 c-93 -49 -203 -107 -242 -127 l-73 -37 0 -856 1 -855 72
180 c123 305 237 509 377 677 l50 60 0 524 c0 288 -3 524 -7 524 -5 0 -84 -41
-178 -90z"/>
<!-- bottom-->
<path style="--order: 3" d="M2971 4315 l-1 -2030 108 -71 c59 -39 170 -108 247 -153 l140 -82 3
1682 2 1682 -58 91 c-161 250 -322 581 -435 896 -3 8 -6 -899 -6 -2015z" />

<!-- 4 -->
<!-- top -->
<path style="--order: 4" d="M4092 10949 c-62 -16 -158 -44 -215 -62 l-102 -33 -3 -438 -2 -438
67 60 c106 93 210 169 311 229 l92 54 0 330 c0 307 -1 329 -17 328 -10 0 -69
-14 -131 -30z"/>
<!--  bottom -->
<path style="--order: 4" d="M3770 3390 l0 -1561 64 -28 c80 -36 342 -137 379 -146 l27 -7 0 1443
0 1444 -102 75 c-56 41 -162 135 -235 208 l-133 132 0 -1560z"/>

<!-- 5  -->
<!-- this is top -->
<path  style="--order: 5" d="M4805 11059 c-77 -5 -169 -12 -205 -16 l-65 -8 -3 -292 c-2 -231 0
-293 10 -293 7 0 61 16 121 35 59 19 155 44 212 57 l105 23 0 252 c0 235 -1
253 -17 252 -10 -1 -81 -6 -158 -10z"/>
<!-- bottom -->
<path  style="--order: 5" d="M4530 2957 l0 -1395 88 -21 c96 -22 314 -61 343 -61 19 0 19 36 17
1336 l-3 1337 -89 33 c-68 27 -235 104 -348 162 -5 2 -8 -624 -8 -1391z"/>


<!-- 6   -->
<!-- this is top -->
<path style="--order: 6" d="M5280 10834 l0 -227 38 7 c20 3 126 9 235 13 l197 6 -2 181 -3 181
-60 12 c-51 10 -204 31 -362 48 l-43 5 0 -226z"/>
<!-- bottom -->
<path style="--order: 6" d="M5920 4064 c-165 -29 -408 -28 -602 3 l-38 6 0 -1312 0 -1311 174 0
c95 0 201 3 235 6 l61 7 0 1048 0 1049 -122 -3 c-119 -2 -125 -1 -170 26 -115
67 -143 234 -55 334 46 52 95 70 217 78 186 12 400 53 400 76 0 11 -3 10 -100
-7z"/>


<!-- 7  -->
<path  style="--order: 7" d="M6040 10765 c0 -177 -15 -155 120 -176 67 -10 257 -51 303 -65 15 -5
17 5 17 114 0 83 -4 123 -12 130 -27 22 -382 152 -415 152 -10 0 -13 -35 -13
-155z"/>
<path  style="--order: 7" d="M6360 3724 c-52 -24 -146 -60 -207 -80 l-113 -36 0 -1054 c0 -780 3
-1054 11 -1054 23 0 255 51 339 74 l85 23 3 1087 c2 866 0 1086 -10 1085 -7
-1 -56 -21 -108 -45z"/>


<!-- 8  -->
<path style="--order: 8"  d="M6770 10513 l0 -99 48 -23 c88 -42 207 -113 290 -173 46 -33 86 -57
89 -54 9 8 -55 109 -114 181 -55 67 -155 156 -254 225 l-59 41 0 -98z"/>
<path style="--order: 8" d="M7183 4433 c-85 -127 -174 -232 -297 -350 l-116 -112 0 -1136 0
-1136 23 7 c41 13 251 106 350 155 l97 49 0 1300 c0 715 -1 1300 -3 1300 -1 0
-26 -35 -54 -77z"/>

<!-- 9 single guys now-->
<path style="--order: 9" d="M7966 7125 c-160 -195 -313 -499 -401 -799 l-35 -119 0 -2059 c0
-1132 4 -2058 8 -2058 15 0 249 164 361 253 l111 88 0 2369 c0 1304 -2 2370
-4 2370 -2 0 -20 -20 -40 -45z"/>

<!-- 10 -->
<path style="--order: 10" d="M8660 7694 c-117 -62 -253 -148 -317 -201 l-43 -34 0 -2446 0 -2445
183 95 c100 53 206 108 234 124 l53 28 0 2468 c0 1357 -1 2467 -2 2467 -2 0
-50 -25 -108 -56z"/>
<!-- 11 -->
<path style="--order: 11" d="M9335 7940 c-66 -16 -154 -39 -195 -52 l-75 -24 -3 -2437 c-1 -1340
0 -2437 3 -2437 8 0 31 15 258 163 l197 129 0 2344 0 2344 -32 -1 c-18 0 -87
-13 -153 -29z"/>


<!-- 12 got tiny top -->
<!-- little dude -->
<path style="--order: 12" d="M9810 7908 l1 -113 23 55 c12 30 35 78 49 107 15 29 27 55 27 58 0 3
-22 5 -50 5 l-50 0 0 -112z"/>
<path style="--order: 12" d="M10247 7694 c-15 -38 -36 -101 -46 -140 -59 -212 -198 -409 -333
-472 l-58 -27 0 -1778 0 -1779 83 68 c110 91 292 252 345 306 l42 44 -2 1924
-3 1925 -28 -71z"/>
<!-- 13 -->
<path style="--order: 13" d="M10965 8459 c-119 -68 -205 -129 -309 -217 l-86 -73 0 -1965 c0
-1308 3 -1963 10 -1959 17 11 127 159 201 272 85 130 202 366 258 521 l41 114
0 1679 c0 1366 -2 1679 -13 1679 -7 0 -53 -23 -102 -51z"/>

<!-- 14 -->
<path style="--order: 14" d="M11684 8726 c-60 -13 -156 -38 -212 -55 l-102 -32 0 -1154 c0 -635 2
-1155 5 -1155 4 0 20 7 37 16 19 10 57 17 92 17 92 1 160 -40 200 -120 21 -41
21 -225 1 -377 -8 -61 -13 -111 -11 -113 2 -2 35 13 74 34 l72 38 0 1463 0
1462 -22 -1 c-13 0 -73 -11 -134 -23z"/>

<!-- 15 -->
<path style="--order: 15" d="M12476 8713 c-74 -26 -204 -34 -293 -19 l-43 8 0 -1366 0 -1365 43
18 c80 34 180 63 291 86 l111 22 5 1307 c5 1183 3 1309 -11 1322 -19 17 -17
17 -103 -13z"/>

<!-- 16 -->
<path style="--order: 16" d="M12880 7339 l0 -1191 33 6 c17 3 78 16 134 27 l103 22 -63 67 c-139
151 -163 281 -71 389 69 80 201 95 291 32 l43 -31 0 850 0 849 -42 11 c-145
38 -374 124 -402 151 -6 5 -14 9 -18 9 -4 0 -8 -536 -8 -1191z"/>

<!-- 17 -->
<path style="--order: 17" d="M14092 8379 c-84 -24 -225 -46 -344 -54 l-98 -7 0 -959 0 -959 27 -6
c58 -15 212 91 295 204 39 53 85 89 123 97 11 2 32 6 48 10 l27 5 0 845 c0
465 -3 844 -7 844 -5 -1 -36 -9 -71 -20z"/>

<!-- 18 -->
<path style="--order: 18" d="M14693 8671 c-45 -32 -116 -78 -157 -102 l-76 -44 0 -1173 0 -1172
23 -9 c12 -5 108 -23 212 -40 105 -18 200 -34 213 -38 l22 -5 0 1299 0 1299
-67 18 c-38 10 -72 20 -78 22 -5 2 -47 -23 -92 -55z"/>

<!-- 19 -->
<path style="--order: 19" d="M15345 8755 c-44 -19 -88 -34 -97 -35 -17 0 -18 -72 -17 -1367 l0
-1368 116 -55 c64 -30 159 -79 211 -107 53 -29 96 -52 97 -50 1 1 -4 40 -11
87 -7 47 -16 142 -20 211 -8 141 0 181 47 241 l29 37 0 1195 0 1195 -37 10
c-32 8 -91 18 -213 36 -14 2 -61 -12 -105 -30z"/>

<!-- 20 -->

<path style="--order: 20" d="M15990 7494 l0 -1155 24 -32 c34 -46 43 -87 50 -217 13 -268 114
-689 253 -1055 50 -130 128 -305 137 -305 3 0 6 834 6 1854 l0 1855 -87 49
c-125 70 -334 162 -368 162 -13 0 -15 -148 -15 -1156z"/>

<!-- 21 -->
<path style="--order: 21" d="M16750 6242 l0 -1959 66 -79 c73 -87 374 -394 386 -394 5 0 8 809 8
1799 l0 1799 -25 56 c-14 31 -34 92 -46 134 -24 92 -100 255 -159 343 -69 102
-203 259 -222 259 -4 0 -8 -881 -8 -1958z"/>

<!-- 22 -->
<path style="--order: 22" d="M17500 7977 c0 -52 10 -97 46 -207 57 -172 101 -248 167 -290 117
-74 130 -254 24 -347 -48 -42 -97 -57 -173 -50 l-64 5 0 -1769 0 -1768 138
-104 c75 -57 181 -134 235 -171 l97 -67 0 2384 0 2384 -32 6 c-212 37 -281 47
-353 53 l-85 7 0 -66z"/>

<!-- 23 -->
<path style="--order: 23" d="M18260 5457 l0 -2433 138 -81 c150 -88 357 -203 366 -203 3 0 6 1111
6 2468 l0 2468 -127 63 c-126 63 -341 151 -368 151 -13 0 -15 -310 -15 -2433z"/>

<!-- 24 -->
<path style="--order: 24" d="M19062 5023 l3 -2437 123 -56 c96 -43 146 -74 235 -144 l112 -89 3
2309 2 2309 -31 50 c-77 125 -154 220 -284 352 -77 79 -146 143 -153 143 -9 0
-12 -521 -10 -2437z"/>

<!-- 25  -->
<!-- top -->
<path style="--order: 25" d="M20304 10418 c-73 -79 -172 -223 -161 -234 3 -3 48 25 101 63 l96 68
0 68 c0 37 -1 67 -3 67 -2 0 -17 -15 -33 -32z"/>

<path style="--order: 25" d="M19830 4109 l0 -2015 123 -71 c116 -68 207 -116 290 -155 l37 -17 0
1222 0 1223 -51 68 c-230 305 -302 544 -319 1061 -5 149 -16 326 -25 395 -16
139 -42 290 -50 298 -3 3 -5 -901 -5 -2009z"/>

<!-- 26 needs top-->
<path style="--order: 26" d="M20924 10816 c-106 -45 -279 -134 -326 -168 -27 -19 -28 -22 -28
-114 0 -52 2 -94 4 -94 3 0 49 17 103 38 86 34 267 89 346 106 l27 6 0 135 c0
101 -3 135 -12 135 -7 0 -59 -20 -114 -44z"/>
<path style="--order: 26" d="M20570 2866 l0 -1135 28 -14 c53 -27 406 -137 440 -137 9 0 12 251
12 1069 l0 1068 -107 52 c-88 43 -246 141 -354 220 -19 13 -19 -12 -19 -1123z"/>

<!-- 27  -->
<path style="--order: 27" d="M21572 11015 c-89 -18 -178 -39 -197 -45 l-35 -12 0 -160 0 -161 68
6 c37 4 131 7 210 7 l142 0 0 200 c0 154 -3 200 -12 199 -7 0 -86 -15 -176
-34z"/>
<!-- 27 bottom top -->
<path style="--order: 27" d="M21310 4102 c0 -22 208 -68 356 -78 l94 -7 0 25 0 25 -152 6 c-135 6
-195 13 -275 32 -13 3 -23 1 -23 -3z"/>
<!-- 27 bottom -->
<path style="--order: 27" d="M21340 2574 l0 -1054 23 -5 c43 -10 283 -35 339 -35 l58 0 0 1048 0
1048 -147 12 c-82 7 -176 19 -210 26 l-63 14 0 -1054z"/>


<!-- 28  -->
<path style="--order: 28" d="M22087 11083 l-27 -4 2 -221 3 -222 125 -17 c69 -10 168 -28 220 -39
53 -11 101 -20 108 -20 10 0 12 60 10 263 l-3 262 -205 1 c-113 1 -217 -1
-233 -3z"/>
<path style="--order: 28" d="M22406 4193 c-49 -19 -146 -48 -217 -66 l-129 -32 0 -1309 0 -1309
113 8 c61 4 166 14 232 23 l120 17 3 1353 c2 1283 1 1352 -15 1351 -10 -1 -58
-17 -107 -36z"/>
<!-- 29 -->
<path  style="--order: 29" d="M22824 11046 c-2 -6 -3 -139 -2 -295 l3 -284 110 -47 c131 -55 221
-101 293 -146 29 -19 55 -34 57 -34 3 0 5 163 5 363 l0 364 -117 26 c-100 22
-226 46 -321 61 -13 2 -26 -2 -28 -8z"/>
<path style="--order: 29" d="M23245 4664 c-39 -35 -332 -233 -394 -266 l-31 -17 0 -1389 c0 -764
3 -1391 6 -1394 8 -8 162 34 327 90 l137 46 0 1483 c0 816 -1 1483 -2 1483 -2
-1 -21 -17 -43 -36z"/>

<!-- 30  -->
<!-- top -->
<path style="--order: 30" d="M23590 10434 l0 -437 129 -127 c70 -70 165 -174 210 -231 45 -57 93
-117 106 -134 l24 -30 0 598 1 598 -97 45 c-96 45 -356 154 -367 154 -3 0 -6
-196 -6 -436z"/>
<path style="--order: 30" d="M24036 5628 c-7 -13 -44 -72 -82 -133 -105 -169 -317 -457 -353 -480
-8 -4 -11 -466 -11 -1581 l0 -1575 188 96 c103 52 208 109 235 125 l47 30 0
1770 c0 974 -2 1770 -5 1770 -2 0 -11 -10 -19 -22z"/>

<!-- 31 -->
<path  style="--order: 31"  d="M24350 9672 l0 -829 70 -171 c129 -315 155 -467 154 -912 0 -336 -11
-481 -60 -800 -35 -228 -57 -324 -114 -503 l-50 -155 0 -2001 c0 -1101 3
-2001 6 -2001 14 0 272 200 420 325 l24 21 0 3781 0 3782 -42 34 c-109 88
-369 257 -395 257 -11 0 -13 -156 -13 -828z"/>

<!-- 32 -->
<path  style="--order: 32" d="M25100 6441 c0 -3215 1 -3492 16 -3480 54 44 269 320 383 491 l71
107 0 2888 0 2888 -38 61 c-96 156 -292 405 -396 503 l-36 35 0 -3493z"/>

<!-- 33 -->
<path   style="--order: 33"  d="M25860 6415 c0 -1245 4 -2255 9 -2255 20 0 153 381 215 620 104 396
196 1001 216 1417 28 588 -60 1272 -251 1943 -48 170 -171 530 -180 530 -5 0
-9 -972 -9 -2255z"/>
</g>
</svg>
