<?xml version="1.0" encoding="UTF-8"?>
<svg id="Layer_1" data-name="Layer 1" xmlns="http://www.w3.org/2000/svg" xmlns:xlink="http://www.w3.org/1999/xlink" viewBox="0 0 660.01 660.01">
  <defs>
    <style>
      .cls-1, .cls-2 {
        fill: none;
      }

      .cls-3 {
        fill: #1c1e37;
      }

      .cls-2 {
        clip-path: url(#clippath);
      }
    </style>
    <clipPath id="clippath">
      <rect class="cls-1" y="0" width="660.01" height="660.01"/>
    </clipPath>
  </defs>
  <g class="cls-2">
    <path class="cls-3" d="m328.48,202.28c-1.93-.27-4.01-.44-6.24-.5v37.09c1.51,1.93,3.59,4.38,6.24,7.05v-43.64Z"/>
    <path class="cls-3" d="m318.39,233.7v-31.92c-1.91.06-3.9.2-5.97.41v30.29c3.25.49,5.09.72,5.36.87l.61.34Z"/>
    <path class="cls-3" d="m298.46,230.05v-25.52c-2.16.48-4.39,1.03-6.69,1.64v22.36s0,0,0,0c1.55.32,3.07.69,4.54,1.09.74.15,1.45.29,2.15.43"/>
    <path class="cls-3" d="m339.23,205.15c-2.12-.86-4.4-1.6-6.89-2.17v46.57c2.06,1.82,4.35,3.66,6.89,5.45v-49.84Z"/>
    <path class="cls-3" d="m308.56,202.66c-2.01.29-4.08.63-6.24,1.05v27.08c2.35.43,4.41.79,6.24,1.09v-29.21Z"/>
    <path class="cls-3" d="m369.52,267.08v-42.94c-2.23-1.08-4.29-2.35-6.23-3.7v45.48c1.97.46,4.01.85,6.11,1.14.04,0,.08,0,.12.02"/>
    <path class="cls-3" d="m380.38,267.95c-.34,0-.68-.01-1.03-.02.17,0,.34,0,.51.01.17,0,.35,0,.52.01"/>
    <path class="cls-3" d="m379.35,267.93v-40.83c-.23-.03-.45-.05-.68-.08-1.87-.27-3.63-.72-5.3-1.29v41.8c1.92.19,3.82.32,5.68.4.1,0,.19,0,.29,0"/>
    <path class="cls-3" d="m287.92,207.24c-2.03.58-4.11,1.21-6.24,1.88v17.16c2.17.54,4.26,1.05,6.24,1.5v-20.54Z"/>
    <path class="cls-3" d="m383.14,267.97s.03,0,.05,0c-.57,0-1.14,0-1.71,0,.2,0,.4.01.6.01.36,0,.71,0,1.06,0"/>
    <path class="cls-3" d="m359.43,217.62c-2.17-1.65-4.22-3.27-6.24-4.64v49.7c1.99.82,4.07,1.56,6.24,2.21v-47.26Z"/>
    <path class="cls-3" d="m217.89,307.18c2.05-.22,4.14-.32,6.24-.26v-4.86c-1.99-.39-4.07-.66-6.24-.81v5.92Z"/>
    <path class="cls-3" d="m217.03,295.44c1.5-5.51,3.36-10.79,5.57-15.82-1.19-1.27-2.51-2-3.78-2-3.78,0-8,6.32-8,14.77,0,1.08.07,2.12.2,3.12,2.04-.13,4.05-.15,6.02-.07"/>
    <path class="cls-3" d="m204.2,311.06v-8.84c-2.06.43-4.15,1.01-6.24,1.74v11.61c.82-.73,1.72-1.49,2.71-2.28,1-.8,2.19-1.55,3.52-2.23"/>
    <path class="cls-3" d="m214.03,301.15c-1.95.02-3.95.15-5.97.42v7.83c1.86-.66,3.87-1.21,5.97-1.63v-6.62Z"/>
    <path class="cls-3" d="m233.73,305.07c-1.74-.79-3.67-1.49-5.75-2.08v4.23c1.96.24,3.89.63,5.75,1.18v-3.32Z"/>
    <path class="cls-3" d="m237.71,283.55v-44.36c-3.28,5.87-4.95,11.6-5.75,16.36v16.08c.87,5.81,2.23,11.95,2.23,11.95l3.52-.02Z"/>
    <path class="cls-3" d="m277.82,225.42v-15.05c-1.8.6-3.63,1.22-5.51,1.88-.16.06-.31.12-.46.18v12.61c2.04-.07,4.05.07,5.97.39"/>
    <path class="cls-3" d="m257.89,229.1v-10.15c-2.26,1.35-4.34,2.76-6.23,4.23v11.25c1.87-2.18,3.97-3.95,6.23-5.33"/>
    <path class="cls-3" d="m267.99,213.91c-2.21.91-4.29,1.87-6.24,2.88v10.37c2.04-.83,4.13-1.41,6.24-1.75v-11.49Z"/>
    <path class="cls-3" d="m244.19,265.46c-.98-10.76.57-18.99,3.61-25.14v-13.86c-2.41,2.23-4.47,4.53-6.24,6.85v50.22h1.17s2.08-11.11,1.45-18.07"/>
    <path class="cls-3" d="m399.99,202.11v-1.13h0c.16-.03.33-.04.49-.06-.02,0-.04-.01-.07-.01-.62-.12-1.22-.21-1.77-.24.15.15.31.31.46.47.29.3.59.63.88.98"/>
    <path class="cls-3" d="m167.49,333.45v58.93c1.28,3.13,2.91,6.34,5,9.52l.61-79.88c-1.53,2.22-2.95,4.73-4.11,7.55-.54,1.31-1.04,2.61-1.51,3.88"/>
    <path class="cls-3" d="m423.93,214.99c-.05-.06-.11-.12-.16-.18v33.02c2.58-3.78,4.39-7.85,5.3-12.02,1.57-7.22-.3-14.81-5.14-20.82"/>
    <path class="cls-3" d="m162.39,370.38l.14,1.08c.26,2.09.58,4.61,1.1,7.41v-31.85c-2.27,11.16-1.73,19.5-1.23,23.36"/>
    <path class="cls-3" d="m435.53,306.58v-5.23c-1.97.29-3.86.69-5.63,1.17v4.3c1.87-.21,3.76-.29,5.63-.25"/>
    <path class="cls-3" d="m410.09,204.64c-2.13-1.13-4.26-2.08-6.24-2.77v6.68c1.31,3.12,1.91,6.29,1.02,8.34-.3.69-.65,1.34-1.02,1.97v44.88c2.19-.93,4.28-2,6.24-3.18v-55.91Z"/>
    <path class="cls-3" d="m419.92,252.62v-41.53c-1.77-1.45-3.81-2.9-5.97-4.25v51.11c2.2-1.64,4.19-3.43,5.97-5.33"/>
    <path class="cls-3" d="m177,317.18l-.7,89.83c2.07,2.46,4.47,4.85,7.25,7.14v-102.73c-1.96,1.41-4.26,3.31-6.55,5.77"/>
    <path class="cls-3" d="m399.99,223.24c-1.83,1.43-4.07,2.53-6.68,3.26v40.45c2.31-.45,4.54-1.04,6.68-1.76v-41.95Z"/>
    <path class="cls-3" d="m194.1,319.42v-13.92c-1.68.75-3.35,1.61-5.01,2.58-.1.06-.2.11-.3.15-.02.01-.53.24-1.38.71v22.79c.19-.47.37-.93.54-1.38,1.48-3.79,2.74-7.05,6.15-10.94"/>
    <path class="cls-3" d="m389.45,227.26c-1.92.24-3.99.31-6.24.2v40.52c2.13-.03,4.21-.17,6.24-.42v-40.3Z"/>
    <path class="cls-3" d="m455.72,302.48c-2.1-.55-4.18-.96-6.24-1.23v7.85c2.39.86,4.51,1.92,6.24,3.1v-9.72Z"/>
    <path class="cls-3" d="m465.82,322.35v-15.99c-2.07-1.07-4.16-1.96-6.24-2.7v11.67c2.92,2.61,4.84,4.86,6.24,7.01"/>
    <path class="cls-3" d="m439.39,300.94v5.89c2.15.23,4.25.6,6.24,1.1v-7.04c-2.13-.12-4.22-.09-6.24.05"/>
    <path class="cls-3" d="m442.96,295.07c.38-1.65.61-3.46.61-5.39,0-8.45-4.22-14.77-8-14.77-1.26,0-2.56.71-3.74,1.96,2.73,5.78,5.01,11.9,6.78,18.35,1.43-.1,2.88-.15,4.35-.14"/>
    <path class="cls-3" d="m349.33,210.5c-2.02-1.26-4.07-2.47-6.24-3.57v50.61c1.96,1.2,4.04,2.34,6.24,3.41v-50.45Z"/>
    <path class="cls-3" d="m427.37,339.16c1.69-2.68,4.53-7.17,4.59-8.75,0-6.15-.44-12.09-1.25-17.82-2.31.24-4.57.7-6.65,1.43-6.37,2.25-10.29,6.49-11.66,12.6-.29,1.32-1.47,2.26-2.82,2.26h-.03c-1.37-.01-2.54-.98-2.81-2.32-.09-.47-2.25-11.62,4.27-19.72,3.26-4.04,9.12-7.54,16.4-9.65-3.3-11.38-8.33-21.65-14.91-30.58-1.02.45-2.05.89-3.12,1.29.2,2.93-3.17,4.26-3.17,4.26-1.8-.73-4.28-1.14-6.94-1.35-4.65.97-9.6,1.53-14.81,1.65,1.14,2.17.8,5.54.68,6.42-.15,1.08-1.7,10.26-12.22,8.18-10.52-2.09-8.97-12.83-8.97-12.83-6.75-1.3-20.74,1.48-20.74,1.48-5.6-2.69-1.2-6.86-1.2-6.86,2.33-.8,4.77-1.5,7.26-2.11-21.65-8.03-33.76-22.22-36.68-25.96-2.89-1.5-14.92-3.11-25.6-6.48-13.42,4.88-25.1,12.21-34.64,21.67-.7,3.24-1.19,6.67-1.47,10.21-.85,10.84-5.45,25.73-5.45,25.73l-15.02-.33s-.08-.14-.19-.36c-.68,1.92-1.33,3.87-1.9,5.86,8.07,2.04,14.59,5.76,18.1,10.11,6.52,8.1,4.37,19.25,4.28,19.72-.27,1.34-1.44,2.31-2.81,2.32h-.03c-1.35,0-2.53-.94-2.82-2.27-1.36-6.11-5.28-10.35-11.65-12.59-2.61-.92-5.49-1.41-8.42-1.57-.8,5.66-1.22,11.53-1.22,17.61.06,1.57,2.89,6.06,4.59,8.74,2.61,4.13,5.07,12.52,5.67,16.16,1.27,7.83,3.08,15.78,5.6,23.53.43-.55.75-1.01.97-1.34,0-.19.01-.39,0-.55,0-13.64,4.02-24.17,11.96-31.37,11.1-10.06,26.28-10.31,31.01-10.12,3.16-3.18,7.82-6.33,14.75-8.34.61-.18,1.21-.33,1.81-.48-.54-1.03-.82-2-1.05-2.79-.75-2.62-.23-6.24-.12-6.95l.05-.25c1.42-5.75,5.7-8.1,9.04-8.81.35-.83.83-1.62,1.3-2.27.93-1.3,2.74-1.59,4.04-.66,1.3.93,1.59,2.74.67,4.03-.22.31-.47.73-.61,1.04l1.51,3.53-4.53-.14h-.02c-.54,0-4.58.15-5.75,4.55-.18,1.22-.31,3.29-.06,4.17.49,1.74.89,3.01,3.65,4.12-.28-.35-.45-.58-.49-.64-.94-1.29-.66-3.1.63-4.04,1.29-.94,3.1-.66,4.04.63.1.14,6.84,9.12,16,9.4.15,0,.29,0,.44,0,5.52,0,11-3.21,16.3-9.55,1.02-1.22,2.85-1.39,4.08-.37,1.23,1.02,1.39,2.85.36,4.08-.08.1-.16.19-.25.28,2.28-1.05,2.62-2.25,3.04-3.72.3-1.05.17-3.13,0-4.35-1.22-4.63-5.57-4.54-5.76-4.55l-4.54.14,1.52-3.53c-.15-.33-.41-.76-.61-1.04-.93-1.3-.64-3.11.66-4.04,1.3-.93,3.11-.63,4.04.66.47.66.95,1.44,1.3,2.28,3.34.71,7.62,3.06,9.04,8.81l.05.25c.11.7.63,4.33-.08,6.78-.21.75-.46,1.63-.9,2.55.67.16,1.35.33,2.04.53,6.93,2.01,11.6,5.17,14.75,8.34,4.73-.19,19.91.06,31.01,10.12,7.91,7.17,11.93,17.66,11.96,31.17,2.12-6.98,3.7-14.08,4.84-21.09.59-3.64,3.06-12.03,5.67-16.16m-105.7-64.72s-14.14-1.89-20.79-.16c0,0,2.23,10.62-8.14,13.37-10.36,2.76-12.5-6.32-12.72-7.39-.21-1.07-1.01-5.9,1.25-7.79,0,0-16.21-.72-22.7,2.44,0,0-7.08-2.25-.96-8.92,0,0,38.21-5.74,64.82,1.52,0,0,4.65,3.88-.76,6.92"/>
    <path class="cls-3" d="m241.91,310.8c-1-1.25-2.47-2.5-4.32-3.67v2.68c2.3,1.03,4.33,2.32,6.07,3.84-.46-.99-1.03-1.95-1.75-2.85"/>
    <path class="cls-3" d="m365.54,385.09v-49.26c-1.73-1.08-3.79-2.08-6.23-2.93v30.76c.56.53.91,1.27.91,2.09,0,6.82,3.88,16.31,3.92,16.4.41.99.89,1.97,1.41,2.93"/>
    <path class="cls-3" d="m422.13,308.56c1.27-.45,2.58-.81,3.91-1.1v-3.69c-2.38.89-4.48,1.93-6.23,3.05v2.67c.75-.34,1.52-.65,2.33-.93"/>
    <path class="cls-3" d="m413.75,313.33c.93-.81,1.93-1.55,3.02-2.22v-1.98c-.47.44-.89.89-1.25,1.33-.73.9-1.31,1.87-1.77,2.86"/>
    <path class="cls-3" d="m411.07,376.48c0-3.89-.37-7.47-1.1-10.75v53.85c1.78,1.12,3.78,2.24,5.98,3.28v-32.42c-.77-.95-1.5-1.96-2.17-3.03-2.24-3.61-2.75-8.73-2.71-10.92"/>
    <path class="cls-3" d="m380.43,353.8c-.38,0-.77-.08-1.14-.23-.02,0-.03-.02-.05-.02v46.84c2.06,1.64,4.17,3.15,6.24,4.53v-62.97c-2.27-.5-4.4-.77-6.24-.92v1.97c.55,1.31.82,2.3.92,2.74.36,1.05,1.06,2.29,1.44,2.54,1.47.62,2.14,2.3,1.51,3.78-.46,1.1-1.55,1.76-2.68,1.76"/>
    <path class="cls-3" d="m401.01,349.52c-.37-.34-.75-.65-1.13-.96v64.53c1.73.83,2.78,1.27,2.84,1.29.27.11.53.27.76.46.77.65,1.65,1.35,2.64,2.09v-61.17c-1.41-2.35-3.1-4.44-5.1-6.25"/>
    <path class="cls-3" d="m375.38,349.3c-.4-.82-.65-1.55-.78-1.95l-.09-.35c-.04-.22-.75-3.44-3.92-6.99-.04-.05-.08-.09-.12-.14-.33-.36-.68-.72-1.07-1.08v52.02c1.79,2.23,3.82,4.33,5.98,6.29v-47.8Z"/>
    <path class="cls-3" d="m389.33,407.37c2.43,1.48,4.71,2.75,6.68,3.78v-65.24c-2.19-1.26-4.46-2.22-6.68-2.94v64.4Z"/>
    <path class="cls-3" d="m419.81,424.5c1.96.74,4.04,1.4,6.23,1.93v-28.35c-2.23-.93-4.33-2.19-6.23-3.75v30.17Z"/>
    <path class="cls-3" d="m429.9,399.32v27.87c1.81.28,3.69.47,5.63.55v-27.76c-2.02-.06-3.86-.26-5.32-.58-.11-.02-.21-.05-.32-.08"/>
    <path class="cls-3" d="m479.51,408.5c2.47-2.67,4.52-5.43,6.23-8.2v-76.43c-1.9-3.17-4.08-5.82-6.23-7.99v92.61Z"/>
    <path class="cls-3" d="m187.41,417.07c1.6,1.12,3.3,2.2,5.12,3.24.52.3,1.04.57,1.56.85v-44.45c-2.37-3.49-4.8-7.96-6.69-13.5v53.86Z"/>
    <path class="cls-3" d="m489.6,392.87c3.62-8.49,4.64-16.46,5.3-21.74l.14-1.08c.7-5.39,1.47-19.51-5.44-37.86v60.68Z"/>
    <path class="cls-3" d="m469.67,330.54c.39,1.01.81,2.07,1.3,3.22,3.6,8.38.54,23.68.17,25.4-.45,1.64-.95,3.19-1.48,4.66v53.13c-.32.23-.64.46-.96.68,2.57-1.7,4.86-3.49,6.93-5.33v-99.86c-2.55-2.03-4.75-3.34-5.97-4v22.11Z"/>
    <path class="cls-3" d="m439.39,427.73c2.02-.09,4.1-.3,6.24-.66v-35.84c-2.1.88-4.17,1.51-6.24,1.89v34.61Z"/>
    <path class="cls-3" d="m429.99,393.06c-.74-.15-1.46-.33-2.15-.55,1.12.5,2.3.94,3.62,1.23,1.06.24,2.5.39,4.08.44v-.65c-1.87.05-3.72-.1-5.55-.47"/>
    <path class="cls-3" d="m459.58,422.7c1.75-.8,3.52-1.7,5.32-2.73.32-.18.61-.37.92-.55v-47.11c-2.1,3.77-4.32,6.71-6.24,8.9v41.49Z"/>
    <path class="cls-3" d="m449.48,389.34v36.92c2.03-.51,4.11-1.15,6.24-1.95v-39.22c-.74.63-1.2.98-1.29,1.04-1.65,1.23-3.3,2.29-4.94,3.22"/>
    <path class="cls-3" d="m247.68,419.77c2.55-1.62,4.64-3.22,6.24-4.57v-62.76c-2.93,3.47-5.01,7.71-6.24,12.69v54.63Z"/>
    <path class="cls-3" d="m277.71,354.45v46.64c2.15-1.69,4.27-3.51,6.24-5.45v-51.04c-.77,1.55-1.01,2.63-1.03,2.76l-.08.33c-.36,1.14-1.78,4.98-4.69,6.2-.14.06-.29.1-.43.14v.42Z"/>
    <path class="cls-3" d="m237.59,394.68v30.17c2.25-.85,4.33-1.82,6.24-2.83v-34.58c-.06.1-.11.2-.18.3-1.68,2.71-3.74,5.05-6.06,6.95"/>
    <path class="cls-3" d="m264.02,344.9c-2.14.99-4.26,2.23-6.24,3.8v64.61c1.61-.78,3.77-1.86,6.24-3.24v-65.17Z"/>
    <path class="cls-3" d="m298.35,333.15v30.66c.49-.38,1.1-.61,1.76-.61,1.6,0,2.89,1.3,2.89,2.89,0,1.73-.2,3.57-.52,5.39.66-.39,1.37-.79,2.1-1.18v-38.63c-1.5.2-3.05.52-4.67.99-.54.16-1.06.32-1.57.5"/>
    <path class="cls-3" d="m358.79,384.37c-.02-.06-.11-.28-.25-.64-5.94,2.35-18.37,6.64-30.36,6.75,0,0-14.45-.24-29.35-6.23-.09.23-.16.4-.18.44-6.85,16.55-27.05,28.23-36.61,32.99,14.47,14.8,35.54,24.69,66.14,24.69v.03c30.81-.15,51.89-10.38,66.27-25.52-9.89-5.04-29.02-16.49-35.66-32.51"/>
    <path class="cls-3" d="m227.98,427.46c2-.33,3.92-.78,5.75-1.32v-28.87c-1.81.99-3.74,1.76-5.75,2.26v27.92Z"/>
    <path class="cls-3" d="m197.96,381.68v41.4c2.12.97,4.2,1.77,6.24,2.44v-38.23c-.41-.29-.82-.57-1.23-.88-.18-.13-2.27-1.66-5-4.74"/>
    <path class="cls-3" d="m208.05,426.63c2.04.51,4.03.87,5.97,1.11v-35.33c-1.98-.67-3.97-1.57-5.97-2.69v36.91Z"/>
    <path class="cls-3" d="m221.68,394.52c1.65-.04,3.18-.2,4.29-.45,1.33-.29,2.51-.73,3.63-1.23-.69.21-1.41.39-2.15.54-3.13.64-6.32.65-9.56.03v34.65c2.15.1,4.23.05,6.24-.12v-27.76c-.73.06-1.5.11-2.29.13-.03,0-.05,0-.08,0-1.56,0-2.85-1.25-2.89-2.82-.04-1.6,1.22-2.93,2.82-2.97"/>
    <path class="cls-3" d="m273.85,352.17v-10.25c-1.89.33-3.91.8-5.98,1.48v64.44c1.92-1.16,3.94-2.46,5.98-3.89v-51.77Z"/>
    <path class="cls-3" d="m314.41,366.77v-34.46c.14.02.27.06.4.09-.27-.19-.52-.39-.77-.58-.03,0-.06,0-.09-.01-.89.46-1.99.78-3.33.78-.66,0-1.39-.09-2.17-.26v36.12c1.64-.69,3.27-1.23,4.75-1.47l.72-.12c.15-.02.33-.05.5-.08"/>
    <path class="cls-3" d="m310.95,380.23s15.52,4.46,34.02-.41c0,0,4.63-2.58,9.49-2.18-3.13-2-8.01-4.78-11.14-5.29l-.69-.11c-3.58-.57-8.8-1.42-13.45-3.04-4.86,1.85-10.54,2.76-14.35,3.37l-.71.11c-2.93.48-7.35,2.92-10.47,4.87,2.02.29,4.43,1.1,7.3,2.68"/>
    <path class="cls-3" d="m344.24,366.64c.36.06.74.14,1.11.23v-34.35c-.79-.1-1.49-.31-2.1-.6-1.36,1.06-2.74,1.96-4.14,2.72v31.13c1.75.33,3.31.58,4.42.76l.7.11Z"/>
    <path class="cls-3" d="m332.69,360.18c.54-.96,1.55-1.48,2.58-1.47v-22.41c-2.1.68-4.24,1.04-6.4,1.04-.16,0-.33,0-.49,0v25.34c.23.11.46.21.7.32,1.68-.8,3.01-1.72,3.61-2.81"/>
    <path class="cls-3" d="m355.45,331.81c-1.25-.28-2.47-.48-3.64-.6-.51.24-1.06.47-1.67.69-.32.11-.62.2-.92.29v36.02c2,.86,4,1.93,5.73,2.94-.31-1.82-.52-3.66-.52-5.39,0-.88.4-1.66,1.02-2.19v-31.76Z"/>
    <path class="cls-3" d="m320.81,358.73c1.27-.7,2.84-.35,3.7.78v-22.66c-2.27-.49-4.36-1.3-6.24-2.29v31.54c1.16-.22,2.4-.48,3.66-.78-.91-.79-1.69-1.66-2.24-2.65-.78-1.4-.28-3.16,1.12-3.94"/>
    <path class="cls-3" d="m294.49,379.24v-44.52c-2.87,1.4-5.04,3.02-6.68,4.63v52.06c2.28-2.79,4.18-5.77,5.49-8.93.01-.03.53-1.31,1.19-3.24"/>
    <path class="cls-3" d="m277.71,341.41v3.17c.3-.86.76-1.99,1.45-3.28-.46.03-.95.07-1.45.11"/>
  </g>
</svg>